%TF.GenerationSoftware,Altium Limited,Altium Designer,21.0.9 (235)*%
G04 Layer_Physical_Order=2*
G04 Layer_Color=16711680*
%FSLAX45Y45*%
%MOMM*%
%TF.SameCoordinates,CD0AAE9F-0E9C-42BF-811C-419C72380B22*%
%TF.FilePolarity,Positive*%
%TF.FileFunction,Copper,L2,Bot,Signal*%
%TF.Part,Single*%
G01*
G75*
%TA.AperFunction,Conductor*%
%ADD10C,1.01600*%
%ADD11C,1.27000*%
%TA.AperFunction,ComponentPad*%
%ADD12R,1.50000X1.50000*%
%ADD13C,1.50000*%
%ADD14R,1.50000X1.50000*%
%ADD15C,2.10000*%
%ADD16R,2.10000X2.10000*%
%TA.AperFunction,WasherPad*%
%ADD17C,1.52400*%
%TA.AperFunction,ComponentPad*%
%ADD18C,2.00000*%
%ADD19R,2.00000X2.00000*%
%ADD20C,1.65000*%
%ADD21R,2.00000X2.00000*%
%ADD22C,1.95000*%
%ADD23R,1.95000X1.95000*%
%ADD24C,1.40000*%
%ADD25C,1.60000*%
%ADD26C,1.35000*%
%ADD27R,1.35000X1.35000*%
%ADD28R,1.91000X1.91000*%
%ADD29C,1.91000*%
%TA.AperFunction,Conductor*%
%ADD30C,0.50800*%
D10*
X1197395Y817632D02*
X1361295Y981532D01*
X2406375Y917234D02*
X2566711Y1077570D01*
X1017195Y817632D02*
X1197395D01*
X853295Y981532D02*
X1017195Y817632D01*
X1361295Y981532D02*
X1858235D01*
X1922533Y917234D01*
X2566711Y1077570D02*
Y1535273D01*
X1922533Y917234D02*
X2406375D01*
X1310495Y1946732D02*
X1529357D01*
X2298555Y1177534D01*
X599295Y1235532D02*
X1310495Y1946732D01*
X2566711Y1535273D02*
X2763870Y1732433D01*
X3079935D01*
X3268835Y1543533D01*
X6103097Y841424D02*
Y912031D01*
X3157339Y426867D02*
X5688541D01*
X6103097Y841424D01*
Y912031D02*
X6119797Y928731D01*
X5619793Y3049092D02*
X5874794Y2794091D01*
X6567477D01*
X5619793Y928736D02*
X5874789Y1183731D01*
X6567477D01*
X5070371Y928736D02*
X5619793D01*
X4954074Y1045032D02*
X5070371Y928736D01*
X2981434Y602772D02*
X3157339Y426867D01*
X2727434Y602772D02*
X2980789Y856127D01*
X4765170D01*
X4954074Y1045032D01*
X6119797Y928731D02*
X6567477D01*
X6119797Y3049092D02*
X6567477D01*
X2842115Y2589530D02*
X3268835D01*
X6119797Y1438732D02*
X6567477D01*
D11*
X381000Y3761740D02*
X387224D01*
X3174997Y3784603D02*
X3234868Y3724732D01*
X3238386D01*
X381000Y3784603D02*
X3174997D01*
X2082518Y426172D02*
X2142034Y485688D01*
X2219434Y596549D02*
Y602772D01*
X2142034Y519149D02*
X2219434Y596549D01*
X2142034Y485688D02*
Y519149D01*
X1154655Y426172D02*
X2082518D01*
X599295Y981532D02*
X1154655Y426172D01*
X3859573Y4330253D02*
X4954552D01*
X5901388Y3267502D02*
X6119797Y3049092D01*
X5496415Y3267502D02*
X5901388D01*
X5349095Y3120182D02*
X5496415Y3267502D01*
X5274700Y2622342D02*
X5349095Y2696737D01*
Y3120182D01*
X4884275Y2622342D02*
X5274700D01*
X4714095Y2792522D02*
X4884275Y2622342D01*
X5878467Y2289602D02*
X6119797Y2530932D01*
X4510047Y2289602D02*
X5878467D01*
X3831074Y2968574D02*
X4510047Y2289602D01*
X5031077Y2968574D02*
Y3228884D01*
X5313566Y3511372D02*
X6091593D01*
X5031077Y3228884D02*
X5313566Y3511372D01*
X4714095Y2792522D02*
Y4070711D01*
X4711555Y4073251D02*
X4714095Y4070711D01*
X6091593Y3511372D02*
X6603474Y4023253D01*
X4954552Y4330253D02*
X5211554Y4073251D01*
X6345314Y2539091D02*
X6567477D01*
X6337155Y2530932D02*
X6345314Y2539091D01*
X6119797Y2530932D02*
X6337155D01*
X5681033Y4023253D02*
X6103475D01*
X5631035Y4073251D02*
X5681033Y4023253D01*
X5211554Y4073251D02*
X5631035D01*
D12*
X381000Y4292603D02*
D03*
D13*
Y4038603D02*
D03*
Y3784603D02*
D03*
Y3530603D02*
D03*
X1361295Y981532D02*
D03*
X1107295D02*
D03*
X853295D02*
D03*
X599295D02*
D03*
X853295Y1235532D02*
D03*
X1107295D02*
D03*
X1361295D02*
D03*
X2219434Y602772D02*
D03*
X2473434D02*
D03*
X2727434D02*
D03*
X2981434D02*
D03*
X3235434D02*
D03*
D14*
X599295Y1235532D02*
D03*
X1965434Y602772D02*
D03*
D15*
X6603474Y4023253D02*
D03*
X4711555Y4073251D02*
D03*
D16*
X6103475Y4023253D02*
D03*
X5211554Y4073251D02*
D03*
D17*
X230614Y4658253D02*
D03*
Y238025D02*
D03*
X6755874D02*
D03*
Y4658253D02*
D03*
D18*
X3908077Y615772D02*
D03*
X4954074Y1045032D02*
D03*
X2842115Y1543533D02*
D03*
X3268835Y2589530D02*
D03*
D19*
X4954074Y615772D02*
D03*
X3908077Y1045032D02*
D03*
D20*
X2298555Y2955534D02*
D03*
Y1177534D02*
D03*
D21*
X2842115Y2589530D02*
D03*
X3268835Y1543533D02*
D03*
D22*
X4431073Y1538575D02*
D03*
X3831074Y1738574D02*
D03*
Y2968574D02*
D03*
X5031077D02*
D03*
D23*
Y1738574D02*
D03*
D24*
X3238386Y3724732D02*
D03*
X4000386D02*
D03*
D25*
X3859573Y4076253D02*
D03*
Y4330253D02*
D03*
D26*
X5619793Y928736D02*
D03*
Y1438732D02*
D03*
Y3049092D02*
D03*
Y2530932D02*
D03*
D27*
X6119797Y928731D02*
D03*
Y1438732D02*
D03*
Y3049092D02*
D03*
Y2530932D02*
D03*
D28*
X6567477Y1438732D02*
D03*
Y3049092D02*
D03*
D29*
Y1183731D02*
D03*
Y928731D02*
D03*
Y2794091D02*
D03*
Y2539091D02*
D03*
D30*
X365700Y3507740D02*
X381000D01*
X185795Y3327835D02*
X365700Y3507740D01*
X1969877Y1031534D02*
X2359030D01*
X1627379Y1374032D02*
X1969877Y1031534D01*
X991795Y1374032D02*
X1627379D01*
X853295Y1235532D02*
X991795Y1374032D01*
X2444555Y1117059D02*
Y1238009D01*
X1621532Y2061032D02*
X2444555Y1238009D01*
X729993Y2061032D02*
X1621532D01*
X185795Y2605230D02*
X729993Y2061032D01*
X185795Y2605230D02*
Y3327835D01*
X2359030Y1031534D02*
X2444555Y1117059D01*
%TF.MD5,c26da704c74d40db0e253e6ceb0658c8*%
M02*
