%TF.GenerationSoftware,Altium Limited,Altium Designer,21.0.9 (235)*%
G04 Layer_Color=32768*
%FSLAX45Y45*%
%MOMM*%
%TF.SameCoordinates,CD0AAE9F-0E9C-42BF-811C-419C72380B22*%
%TF.FilePolarity,Positive*%
%TF.FileFunction,Other,Mechanical_15*%
%TF.Part,Single*%
G01*
G75*
%TA.AperFunction,NonConductor*%
%ADD49C,0.20000*%
%ADD55C,0.05000*%
D49*
X3669073Y1378575D02*
X5193073D01*
Y3328573D01*
X3669073D02*
X5193073D01*
X3669073Y1378575D02*
Y3328573D01*
D55*
X224295Y3326531D02*
X1714294D01*
Y806531D02*
Y3326531D01*
X224295Y806531D02*
X1714294D01*
X224295D02*
Y3326531D01*
X5828474Y3648253D02*
Y4448251D01*
Y3648253D02*
X6878475D01*
Y4448251D01*
X5828474D02*
X6878475D01*
X6368473Y1728734D02*
X6878074D01*
Y638734D02*
Y1728734D01*
X6368473Y638734D02*
X6878074D01*
X6368473D02*
Y1728734D01*
Y3339094D02*
X6878074D01*
Y2249094D02*
Y3339094D01*
X6368473Y2249094D02*
X6878074D01*
X6368473D02*
Y3339094D01*
X4436554Y3648253D02*
X5486555D01*
X4436554D02*
Y4448251D01*
X5486555D01*
Y3648253D02*
Y4448251D01*
%TF.MD5,878b143ee2a5f42d66d9151c88d8b64e*%
M02*
