%TF.GenerationSoftware,Altium Limited,Altium Designer,21.0.9 (235)*%
G04 Layer_Color=8388736*
%FSLAX45Y45*%
%MOMM*%
%TF.SameCoordinates,CD0AAE9F-0E9C-42BF-811C-419C72380B22*%
%TF.FilePolarity,Negative*%
%TF.FileFunction,Soldermask,Top*%
%TF.Part,Single*%
G01*
G75*
%TA.AperFunction,ComponentPad*%
%ADD31R,1.70320X1.70320*%
%ADD32C,1.70320*%
%ADD33R,1.70320X1.70320*%
%ADD34C,2.30320*%
%ADD35R,2.30320X2.30320*%
%TA.AperFunction,WasherPad*%
%ADD36C,1.72720*%
%TA.AperFunction,ComponentPad*%
%ADD37C,2.20320*%
%ADD38R,2.20320X2.20320*%
%ADD39C,1.85320*%
%ADD40R,2.20320X2.20320*%
%ADD41C,2.15320*%
%ADD42R,2.15320X2.15320*%
%ADD43C,1.60320*%
%ADD44C,1.80320*%
%ADD45C,1.55320*%
%ADD46R,1.55320X1.55320*%
%ADD47R,2.11320X2.11320*%
%ADD48C,2.11320*%
D31*
X381000Y4292603D02*
D03*
D32*
Y4038603D02*
D03*
Y3784603D02*
D03*
Y3530603D02*
D03*
X1361295Y981532D02*
D03*
X1107295D02*
D03*
X853295D02*
D03*
X599295D02*
D03*
X853295Y1235532D02*
D03*
X1107295D02*
D03*
X1361295D02*
D03*
X2219434Y602772D02*
D03*
X2473434D02*
D03*
X2727434D02*
D03*
X2981434D02*
D03*
X3235434D02*
D03*
D33*
X599295Y1235532D02*
D03*
X1965434Y602772D02*
D03*
D34*
X6603474Y4023253D02*
D03*
X4711555Y4073251D02*
D03*
D35*
X6103475Y4023253D02*
D03*
X5211554Y4073251D02*
D03*
D36*
X230614Y4658253D02*
D03*
Y238025D02*
D03*
X6755874D02*
D03*
Y4658253D02*
D03*
D37*
X3908077Y615772D02*
D03*
X4954074Y1045032D02*
D03*
X2842115Y1543533D02*
D03*
X3268835Y2589530D02*
D03*
D38*
X4954074Y615772D02*
D03*
X3908077Y1045032D02*
D03*
D39*
X2298555Y2955534D02*
D03*
Y1177534D02*
D03*
D40*
X2842115Y2589530D02*
D03*
X3268835Y1543533D02*
D03*
D41*
X4431073Y1538575D02*
D03*
X3831074Y1738574D02*
D03*
Y2968574D02*
D03*
X5031077D02*
D03*
D42*
Y1738574D02*
D03*
D43*
X3238386Y3724732D02*
D03*
X4000386D02*
D03*
D44*
X3859573Y4076253D02*
D03*
Y4330253D02*
D03*
D45*
X5619793Y928736D02*
D03*
Y1438732D02*
D03*
Y3049092D02*
D03*
Y2530932D02*
D03*
D46*
X6119797Y928731D02*
D03*
Y1438732D02*
D03*
Y3049092D02*
D03*
Y2530932D02*
D03*
D47*
X6567477Y1438732D02*
D03*
Y3049092D02*
D03*
D48*
Y1183731D02*
D03*
Y928731D02*
D03*
Y2794091D02*
D03*
Y2539091D02*
D03*
%TF.MD5,e8a6aeb5ee00c58b434af8ddd10ce371*%
M02*
