%TF.GenerationSoftware,Altium Limited,Altium Designer,21.0.9 (235)*%
G04 Layer_Color=2752767*
%FSLAX45Y45*%
%MOMM*%
%TF.SameCoordinates,CD0AAE9F-0E9C-42BF-811C-419C72380B22*%
%TF.FilePolarity,Positive*%
%TF.FileFunction,Drawing*%
%TF.Part,Single*%
G01*
G75*
%TA.AperFunction,NonConductor*%
%ADD50C,0.12700*%
%ADD72C,0.16933*%
D50*
X330200Y4241803D02*
Y4343403D01*
X431800D01*
Y4241803D01*
X330200D01*
Y3987803D02*
Y4089403D01*
X431800D01*
Y3987803D01*
X330200D01*
Y3733803D02*
Y3835403D01*
X431800D01*
Y3733803D01*
X330200D01*
Y3479803D02*
Y3581403D01*
X431800D01*
Y3479803D01*
X330200D01*
X6603474Y3972453D02*
X6552674Y4074053D01*
X6654274D01*
X6603474Y3972453D01*
X6103475D02*
X6052675Y4074053D01*
X6154275D01*
X6103475Y3972453D01*
X230614Y4607453D02*
X256014Y4632853D01*
X281414D01*
X256014Y4658253D01*
X281414Y4683653D01*
X256014D01*
X230614Y4709053D01*
X205214Y4683653D01*
X179814D01*
X205214Y4658253D01*
X179814Y4632853D01*
X205214D01*
X230614Y4607453D01*
Y187225D02*
X256014Y212625D01*
X281414D01*
X256014Y238025D01*
X281414Y263425D01*
X256014D01*
X230614Y288825D01*
X205214Y263425D01*
X179814D01*
X205214Y238025D01*
X179814Y212625D01*
X205214D01*
X230614Y187225D01*
X6755874D02*
X6781274Y212625D01*
X6806674D01*
X6781274Y238025D01*
X6806674Y263425D01*
X6781274D01*
X6755874Y288825D01*
X6730474Y263425D01*
X6705074D01*
X6730474Y238025D01*
X6705074Y212625D01*
X6730474D01*
X6755874Y187225D01*
Y4607453D02*
X6781274Y4632853D01*
X6806674D01*
X6781274Y4658253D01*
X6806674Y4683653D01*
X6781274D01*
X6755874Y4709053D01*
X6730474Y4683653D01*
X6705074D01*
X6730474Y4658253D01*
X6705074Y4632853D01*
X6730474D01*
X6755874Y4607453D01*
X3857277Y564972D02*
X3882677Y615772D01*
X3857277Y666572D01*
X3908077Y641172D01*
X3958877Y666572D01*
X3933477Y615772D01*
X3958877Y564972D01*
X3908077Y590372D01*
X3857277Y564972D01*
X4903274D02*
X4928674Y615772D01*
X4903274Y666572D01*
X4954074Y641172D01*
X5004874Y666572D01*
X4979474Y615772D01*
X5004874Y564972D01*
X4954074Y590372D01*
X4903274Y564972D01*
Y994232D02*
X4928674Y1045032D01*
X4903274Y1095832D01*
X4954074Y1070432D01*
X5004874Y1095832D01*
X4979474Y1045032D01*
X5004874Y994232D01*
X4954074Y1019632D01*
X4903274Y994232D01*
X3857277D02*
X3882677Y1045032D01*
X3857277Y1095832D01*
X3908077Y1070432D01*
X3958877Y1095832D01*
X3933477Y1045032D01*
X3958877Y994232D01*
X3908077Y1019632D01*
X3857277Y994232D01*
X2273155Y2930134D02*
Y2904734D01*
X2323955D01*
Y2930134D01*
X2349355D01*
Y2980934D01*
X2323955D01*
Y3006334D01*
X2273155D01*
Y2980934D01*
X2247755D01*
Y2930134D01*
X2273155D01*
Y1152134D02*
Y1126734D01*
X2323955D01*
Y1152134D01*
X2349355D01*
Y1202934D01*
X2323955D01*
Y1228334D01*
X2273155D01*
Y1202934D01*
X2247755D01*
Y1152134D01*
X2273155D01*
X2791315Y1492733D02*
X2816715Y1543533D01*
X2791315Y1594333D01*
X2842115Y1568933D01*
X2892915Y1594333D01*
X2867515Y1543533D01*
X2892915Y1492733D01*
X2842115Y1518133D01*
X2791315Y1492733D01*
Y2538730D02*
X2816715Y2589530D01*
X2791315Y2640330D01*
X2842115Y2614930D01*
X2892915Y2640330D01*
X2867515Y2589530D01*
X2892915Y2538730D01*
X2842115Y2564130D01*
X2791315Y2538730D01*
X3218035D02*
X3243435Y2589530D01*
X3218035Y2640330D01*
X3268835Y2614930D01*
X3319635Y2640330D01*
X3294235Y2589530D01*
X3319635Y2538730D01*
X3268835Y2564130D01*
X3218035Y2538730D01*
Y1492733D02*
X3243435Y1543533D01*
X3218035Y1594333D01*
X3268835Y1568933D01*
X3319635Y1594333D01*
X3294235Y1543533D01*
X3319635Y1492733D01*
X3268835Y1518133D01*
X3218035Y1492733D01*
X4380273Y1487775D02*
X4405673D01*
X4431073Y1513175D01*
X4456473Y1487775D01*
X4481873D01*
Y1513175D01*
X4456473Y1538575D01*
X4481873Y1563975D01*
Y1589375D01*
X4456473D01*
X4431073Y1563975D01*
X4405673Y1589375D01*
X4380273D01*
Y1563975D01*
X4405673Y1538575D01*
X4380273Y1513175D01*
Y1487775D01*
X3780274Y1687774D02*
X3805674D01*
X3831074Y1713174D01*
X3856474Y1687774D01*
X3881874D01*
Y1713174D01*
X3856474Y1738574D01*
X3881874Y1763974D01*
Y1789374D01*
X3856474D01*
X3831074Y1763974D01*
X3805674Y1789374D01*
X3780274D01*
Y1763974D01*
X3805674Y1738574D01*
X3780274Y1713174D01*
Y1687774D01*
Y2917774D02*
X3805674D01*
X3831074Y2943174D01*
X3856474Y2917774D01*
X3881874D01*
Y2943174D01*
X3856474Y2968574D01*
X3881874Y2993974D01*
Y3019374D01*
X3856474D01*
X3831074Y2993974D01*
X3805674Y3019374D01*
X3780274D01*
Y2993974D01*
X3805674Y2968574D01*
X3780274Y2943174D01*
Y2917774D01*
X4980277D02*
X5005677D01*
X5031077Y2943174D01*
X5056477Y2917774D01*
X5081877D01*
Y2943174D01*
X5056477Y2968574D01*
X5081877Y2993974D01*
Y3019374D01*
X5056477D01*
X5031077Y2993974D01*
X5005677Y3019374D01*
X4980277D01*
Y2993974D01*
X5005677Y2968574D01*
X4980277Y2943174D01*
Y2917774D01*
Y1687774D02*
X5005677D01*
X5031077Y1713174D01*
X5056477Y1687774D01*
X5081877D01*
Y1713174D01*
X5056477Y1738574D01*
X5081877Y1763974D01*
Y1789374D01*
X5056477D01*
X5031077Y1763974D01*
X5005677Y1789374D01*
X4980277D01*
Y1763974D01*
X5005677Y1738574D01*
X4980277Y1713174D01*
Y1687774D01*
X3187586Y3724732D02*
X3238386Y3775532D01*
X3289186Y3724732D01*
X3238386Y3673932D01*
X3187586Y3724732D01*
X3949586D02*
X4000386Y3775532D01*
X4051186Y3724732D01*
X4000386Y3673932D01*
X3949586Y3724732D01*
X6516677Y1387932D02*
Y1489532D01*
X6618277D01*
Y1387932D01*
X6516677D01*
X6536997Y1408252D02*
Y1469212D01*
X6597957D01*
Y1408252D01*
X6536997D01*
X6516677Y1132931D02*
Y1234531D01*
X6618277D01*
Y1132931D01*
X6516677D01*
X6536997Y1153251D02*
Y1214211D01*
X6597957D01*
Y1153251D01*
X6536997D01*
X6516677Y877931D02*
Y979531D01*
X6618277D01*
Y877931D01*
X6516677D01*
X6536997Y898251D02*
Y959211D01*
X6597957D01*
Y898251D01*
X6536997D01*
X6516677Y2998292D02*
Y3099892D01*
X6618277D01*
Y2998292D01*
X6516677D01*
X6536997Y3018612D02*
Y3079572D01*
X6597957D01*
Y3018612D01*
X6536997D01*
X6516677Y2743291D02*
Y2844891D01*
X6618277D01*
Y2743291D01*
X6516677D01*
X6536997Y2763611D02*
Y2824571D01*
X6597957D01*
Y2763611D01*
X6536997D01*
X6516677Y2488291D02*
Y2589891D01*
X6618277D01*
Y2488291D01*
X6516677D01*
X6536997Y2508611D02*
Y2569571D01*
X6597957D01*
Y2508611D01*
X6536997D01*
X5211554Y4022451D02*
X5160754Y4124051D01*
X5262354D01*
X5211554Y4022451D01*
X4711555D02*
X4660755Y4124051D01*
X4762355D01*
X4711555Y4022451D01*
X1914634Y551972D02*
Y653572D01*
X2016234D01*
Y551972D01*
X1914634D01*
X2168634D02*
Y653572D01*
X2270234D01*
Y551972D01*
X2168634D01*
X2422634D02*
Y653572D01*
X2524234D01*
Y551972D01*
X2422634D01*
X2676634D02*
Y653572D01*
X2778234D01*
Y551972D01*
X2676634D01*
X2930634D02*
Y653572D01*
X3032234D01*
Y551972D01*
X2930634D01*
X3184634D02*
Y653572D01*
X3286234D01*
Y551972D01*
X3184634D01*
D72*
X1412095Y981532D02*
G03*
X1412095Y981532I-50800J0D01*
G01*
X1158095D02*
G03*
X1158095Y981532I-50800J0D01*
G01*
X904095D02*
G03*
X904095Y981532I-50800J0D01*
G01*
X650095D02*
G03*
X650095Y981532I-50800J0D01*
G01*
Y1235532D02*
G03*
X650095Y1235532I-50800J0D01*
G01*
X904095D02*
G03*
X904095Y1235532I-50800J0D01*
G01*
X1158095D02*
G03*
X1158095Y1235532I-50800J0D01*
G01*
X1412095D02*
G03*
X1412095Y1235532I-50800J0D01*
G01*
X3910373Y4076253D02*
G03*
X3910373Y4076253I-50800J0D01*
G01*
Y4330253D02*
G03*
X3910373Y4330253I-50800J0D01*
G01*
X5670593Y928736D02*
G03*
X5670593Y928736I-50800J0D01*
G01*
X6170597Y928731D02*
G03*
X6170597Y928731I-50800J0D01*
G01*
X5670593Y1438732D02*
G03*
X5670593Y1438732I-50800J0D01*
G01*
X6170597D02*
G03*
X6170597Y1438732I-50800J0D01*
G01*
X5670593Y3049092D02*
G03*
X5670593Y3049092I-50800J0D01*
G01*
X6170597D02*
G03*
X6170597Y3049092I-50800J0D01*
G01*
X5670593Y2530932D02*
G03*
X5670593Y2530932I-50800J0D01*
G01*
X6170597D02*
G03*
X6170597Y2530932I-50800J0D01*
G01*
%TF.MD5,b0655f0ba4ea1916f5cffb5b42d9d4fc*%
M02*
