%TF.GenerationSoftware,Altium Limited,Altium Designer,21.0.9 (235)*%
G04 Layer_Color=0*
%FSLAX45Y45*%
%MOMM*%
%TF.SameCoordinates,CD0AAE9F-0E9C-42BF-811C-419C72380B22*%
%TF.FilePolarity,Positive*%
%TF.FileFunction,Plated,1,2,PTH,Drill*%
%TF.Part,Single*%
G01*
G75*
%TA.AperFunction,ComponentDrill*%
%ADD61C,0.90000*%
%ADD62C,0.80000*%
%ADD63C,1.40000*%
%ADD64C,1.20000*%
%ADD65C,1.00000*%
%ADD66C,1.20000*%
%ADD67C,1.30000*%
%ADD68C,0.85000*%
%ADD69C,1.27000*%
%ADD70C,0.90000*%
D61*
X381000Y4292603D02*
D03*
Y4038603D02*
D03*
Y3784603D02*
D03*
Y3530603D02*
D03*
D62*
X1361295Y981532D02*
D03*
X1107295D02*
D03*
X853295D02*
D03*
X599295D02*
D03*
Y1235532D02*
D03*
X853295D02*
D03*
X1107295D02*
D03*
X1361295D02*
D03*
X3859573Y4076253D02*
D03*
Y4330253D02*
D03*
X5619793Y928736D02*
D03*
X6119797Y928731D02*
D03*
X5619793Y1438732D02*
D03*
X6119797D02*
D03*
X5619793Y3049092D02*
D03*
X6119797D02*
D03*
X5619793Y2530932D02*
D03*
X6119797D02*
D03*
D63*
X6603474Y4023253D02*
D03*
X6103475D02*
D03*
X5211554Y4073251D02*
D03*
X4711555D02*
D03*
D64*
X3908077Y615772D02*
D03*
X4954074D02*
D03*
Y1045032D02*
D03*
X3908077D02*
D03*
D65*
X2298555Y2955534D02*
D03*
Y1177534D02*
D03*
D66*
X2842115Y1543533D02*
D03*
Y2589530D02*
D03*
X3268835D02*
D03*
Y1543533D02*
D03*
D67*
X4431073Y1538575D02*
D03*
X3831074Y1738574D02*
D03*
Y2968574D02*
D03*
X5031077D02*
D03*
Y1738574D02*
D03*
D68*
X3238386Y3724732D02*
D03*
X4000386D02*
D03*
D69*
X6567477Y1438732D02*
D03*
Y1183731D02*
D03*
Y928731D02*
D03*
Y3049092D02*
D03*
Y2794091D02*
D03*
Y2539091D02*
D03*
D70*
X1965434Y602772D02*
D03*
X2219434D02*
D03*
X2473434D02*
D03*
X2727434D02*
D03*
X2981434D02*
D03*
X3235434D02*
D03*
%TF.MD5,289e632351de4b5754e1a0ee24c7329d*%
M02*
