%TF.GenerationSoftware,Altium Limited,Altium Designer,21.0.9 (235)*%
G04 Layer_Physical_Order=1*
G04 Layer_Color=255*
%FSLAX45Y45*%
%MOMM*%
%TF.SameCoordinates,CD0AAE9F-0E9C-42BF-811C-419C72380B22*%
%TF.FilePolarity,Positive*%
%TF.FileFunction,Copper,L1,Top,Signal*%
%TF.Part,Single*%
G01*
G75*
%TA.AperFunction,Conductor*%
%ADD10C,1.01600*%
%ADD11C,1.27000*%
%TA.AperFunction,ComponentPad*%
%ADD12R,1.50000X1.50000*%
%ADD13C,1.50000*%
%ADD14R,1.50000X1.50000*%
%ADD15C,2.10000*%
%ADD16R,2.10000X2.10000*%
%TA.AperFunction,WasherPad*%
%ADD17C,1.52400*%
%TA.AperFunction,ComponentPad*%
%ADD18C,2.00000*%
%ADD19R,2.00000X2.00000*%
%ADD20C,1.65000*%
%ADD21R,2.00000X2.00000*%
%ADD22C,1.95000*%
%ADD23R,1.95000X1.95000*%
%ADD24C,1.40000*%
%ADD25C,1.60000*%
%ADD26C,1.35000*%
%ADD27R,1.35000X1.35000*%
%ADD28R,1.91000X1.91000*%
%ADD29C,1.91000*%
D10*
X1260308Y3390432D02*
Y3413295D01*
X381000Y4292603D02*
X1260308Y3413295D01*
X160395Y3817998D02*
X381000Y4038603D01*
X1778195Y2594709D02*
Y3338356D01*
X1260308Y3390432D02*
X1726119D01*
X1107295Y1235532D02*
Y1923809D01*
X1778195Y2594709D01*
X1726119Y3390432D02*
X1778195Y3338356D01*
X160395Y1674432D02*
Y3817998D01*
Y1674432D02*
X599295Y1235532D01*
X2029315Y2937332D02*
X2250295Y3158312D01*
X2029315Y1903552D02*
Y2937332D01*
X1361295Y1235532D02*
X2029315Y1903552D01*
X1361295Y981532D02*
X2298555Y1918792D01*
Y2955534D01*
X2981434Y602772D02*
Y1404214D01*
X2842115Y1543533D02*
X2981434Y1404214D01*
X3908077Y1045032D02*
Y1661571D01*
X3831074Y1738574D02*
X3908077Y1661571D01*
X2298555Y1177534D02*
X2727434Y748655D01*
Y602772D02*
Y748655D01*
X5211554Y3457331D02*
Y4073251D01*
Y3457331D02*
X5619793Y3049092D01*
X5031077Y1122035D02*
Y1738574D01*
X4954074Y1045032D02*
X5031077Y1122035D01*
X2250295Y3158312D02*
X2377295D01*
X2471275Y3064332D01*
Y1695272D02*
Y3064332D01*
X2125835Y1349832D02*
X2471275Y1695272D01*
X2125835Y950371D02*
Y1349832D01*
Y950371D02*
X2473434Y602772D01*
X4954074Y615772D02*
X5732635D01*
X5869795Y752932D01*
Y1188730D01*
X6119797Y1438732D01*
X3908077Y615772D02*
X4431073Y1138768D01*
Y1538575D01*
X3831074Y1738574D02*
Y2968574D01*
X5619793Y2530932D02*
Y3049092D01*
Y1438732D02*
Y2530932D01*
Y928736D02*
Y1438732D01*
D11*
X3043715Y1748211D02*
Y3530062D01*
X2842115Y1546611D02*
X3043715Y1748211D01*
Y3530062D02*
X3238386Y3724732D01*
X2842115Y1543533D02*
Y1546611D01*
X3865887Y3862748D02*
X4000386Y3728250D01*
Y3724732D02*
Y3728250D01*
X3859573Y4076253D02*
X3865887Y4069939D01*
Y3862748D02*
Y4069939D01*
D12*
X381000Y4292603D02*
D03*
D13*
Y4038603D02*
D03*
Y3784603D02*
D03*
Y3530603D02*
D03*
X1361295Y981532D02*
D03*
X1107295D02*
D03*
X853295D02*
D03*
X599295D02*
D03*
X853295Y1235532D02*
D03*
X1107295D02*
D03*
X1361295D02*
D03*
X2219434Y602772D02*
D03*
X2473434D02*
D03*
X2727434D02*
D03*
X2981434D02*
D03*
X3235434D02*
D03*
D14*
X599295Y1235532D02*
D03*
X1965434Y602772D02*
D03*
D15*
X6603474Y4023253D02*
D03*
X4711555Y4073251D02*
D03*
D16*
X6103475Y4023253D02*
D03*
X5211554Y4073251D02*
D03*
D17*
X230614Y4658253D02*
D03*
Y238025D02*
D03*
X6755874D02*
D03*
Y4658253D02*
D03*
D18*
X3908077Y615772D02*
D03*
X4954074Y1045032D02*
D03*
X2842115Y1543533D02*
D03*
X3268835Y2589530D02*
D03*
D19*
X4954074Y615772D02*
D03*
X3908077Y1045032D02*
D03*
D20*
X2298555Y2955534D02*
D03*
Y1177534D02*
D03*
D21*
X2842115Y2589530D02*
D03*
X3268835Y1543533D02*
D03*
D22*
X4431073Y1538575D02*
D03*
X3831074Y1738574D02*
D03*
Y2968574D02*
D03*
X5031077D02*
D03*
D23*
Y1738574D02*
D03*
D24*
X3238386Y3724732D02*
D03*
X4000386D02*
D03*
D25*
X3859573Y4076253D02*
D03*
Y4330253D02*
D03*
D26*
X5619793Y928736D02*
D03*
Y1438732D02*
D03*
Y3049092D02*
D03*
Y2530932D02*
D03*
D27*
X6119797Y928731D02*
D03*
Y1438732D02*
D03*
Y3049092D02*
D03*
Y2530932D02*
D03*
D28*
X6567477Y1438732D02*
D03*
Y3049092D02*
D03*
D29*
Y1183731D02*
D03*
Y928731D02*
D03*
Y2794091D02*
D03*
Y2539091D02*
D03*
%TF.MD5,a3d8e2474a4366cf21f9f3c26c5d8db2*%
M02*
