%TF.GenerationSoftware,Altium Limited,Altium Designer,21.0.9 (235)*%
G04 Layer_Color=16711935*
%FSLAX45Y45*%
%MOMM*%
%TF.SameCoordinates,ED2B7B90-DC9C-465B-8049-FED9E851BE10*%
%TF.FilePolarity,Positive*%
%TF.FileFunction,Other,Mechanical_13*%
%TF.Part,Single*%
G01*
G75*
%TA.AperFunction,NonConductor*%
%ADD47C,0.20000*%
%ADD48C,0.12700*%
%ADD50C,0.15240*%
D47*
X1519107Y3205682D02*
G03*
X1519107Y3205682I-10000J0D01*
G01*
X4121200Y2000381D02*
G03*
X4121200Y2000381I-10000J0D01*
G01*
X381705Y2000380D02*
G03*
X381705Y2000380I-10000J0D01*
G01*
X1419203Y3255679D02*
G03*
X1419203Y3255679I-10000J0D01*
G01*
D48*
X1569105Y2855681D02*
Y3605682D01*
Y2855681D02*
X2569108D01*
Y3605682D01*
X1569105D02*
X2569108D01*
X4156700Y1225382D02*
Y2265385D01*
Y1225382D02*
X4616699D01*
Y2265385D01*
X4156700D02*
X4616699D01*
X417205Y1225382D02*
Y2265380D01*
Y1225382D02*
X877204D01*
Y2265380D01*
X417205D02*
X877204D01*
X1349202Y2855681D02*
Y3605682D01*
X349204D02*
X1349202D01*
X349204Y2855681D02*
Y3605682D01*
Y2855681D02*
X1349202D01*
D50*
X2040702Y1388781D02*
X2967700D01*
X2040702Y2023781D02*
X2967700D01*
%TF.MD5,119c2cd71ad6ea0df1d832b125ac1ae4*%
M02*
