%TF.GenerationSoftware,Altium Limited,Altium Designer,21.0.9 (235)*%
G04 Layer_Color=255*
%FSLAX45Y45*%
%MOMM*%
%TF.SameCoordinates,ED2B7B90-DC9C-465B-8049-FED9E851BE10*%
%TF.FilePolarity,Positive*%
%TF.FileFunction,Pads,Top*%
%TF.Part,Single*%
G01*
G75*
%TA.AperFunction,ComponentPad*%
%ADD13R,1.50000X1.50000*%
%ADD14C,1.50000*%
%ADD15C,2.10000*%
%ADD16R,2.10000X2.10000*%
%TA.AperFunction,WasherPad*%
%ADD17C,1.52400*%
%TA.AperFunction,ComponentPad*%
%ADD18C,1.91000*%
%ADD19R,1.91000X1.91000*%
%ADD20C,1.32080*%
%ADD21R,1.32080X1.32080*%
%ADD22C,1.40000*%
%ADD23R,1.95000X1.95000*%
%ADD24C,1.95000*%
%ADD25R,2.00000X2.00000*%
%ADD26C,2.00000*%
%ADD27C,1.60000*%
%ADD28R,1.35000X1.35000*%
%ADD29C,1.35000*%
D13*
X688101Y601980D02*
D03*
X2794000D02*
D03*
X5611099Y2849281D02*
D03*
D14*
X942101Y601980D02*
D03*
X1196101D02*
D03*
X1450101D02*
D03*
X1704101D02*
D03*
X1958101D02*
D03*
X3048000D02*
D03*
X3302000D02*
D03*
X3556000D02*
D03*
X3810000D02*
D03*
X4064000D02*
D03*
X5865099Y2849281D02*
D03*
X6119099D02*
D03*
X6373099D02*
D03*
D15*
X2319106Y3205683D02*
D03*
X599201Y3255681D02*
D03*
D16*
X1819107Y3205683D02*
D03*
X1099205Y3255681D02*
D03*
D17*
X7439660Y3810000D02*
D03*
Y228600D02*
D03*
X238760D02*
D03*
Y3810000D02*
D03*
D18*
X4330700Y1490386D02*
D03*
Y1745381D02*
D03*
X591205Y1490381D02*
D03*
Y1745381D02*
D03*
D19*
X4330700Y2000382D02*
D03*
X591205D02*
D03*
D20*
X2885201Y2087281D02*
D03*
X2631201D02*
D03*
X2885201Y1325281D02*
D03*
X2631201D02*
D03*
X2123201Y2087281D02*
D03*
X2377201D02*
D03*
Y1325281D02*
D03*
D21*
X2123201D02*
D03*
D22*
X3074888Y2935529D02*
D03*
X3836888D02*
D03*
D23*
X4929901Y2059981D02*
D03*
D24*
Y829981D02*
D03*
X6129904D02*
D03*
Y2059981D02*
D03*
X5529900Y2259980D02*
D03*
D25*
X6657101Y1967977D02*
D03*
X7035800D02*
D03*
D26*
X6657101Y921979D02*
D03*
X7035800D02*
D03*
D27*
X3710701Y3512683D02*
D03*
Y3258683D02*
D03*
D28*
X3206704Y1388781D02*
D03*
Y1998381D02*
D03*
X1077803Y1388781D02*
D03*
Y1998381D02*
D03*
D29*
X3706703Y1388781D02*
D03*
Y1998381D02*
D03*
X1577802Y1388781D02*
D03*
Y1998381D02*
D03*
%TF.MD5,cf8e06011bd06c7f07510a338ac5d3a4*%
M02*
