%TF.GenerationSoftware,Altium Limited,Altium Designer,21.0.9 (235)*%
G04 Layer_Color=32768*
%FSLAX45Y45*%
%MOMM*%
%TF.SameCoordinates,ED2B7B90-DC9C-465B-8049-FED9E851BE10*%
%TF.FilePolarity,Positive*%
%TF.FileFunction,Other,Mechanical_15*%
%TF.Part,Single*%
G01*
G75*
%TA.AperFunction,NonConductor*%
%ADD47C,0.20000*%
%ADD48C,0.12700*%
%ADD54C,0.05000*%
D47*
X6291900Y469981D02*
Y2419980D01*
X4767900Y469981D02*
X6291900D01*
X4767900D02*
Y2419980D01*
X6291900D01*
D48*
X2004197Y1206282D02*
X3004200D01*
Y2206280D01*
X2004197D02*
X3004200D01*
X2004197Y1206282D02*
Y2206280D01*
D54*
X1544107Y2830683D02*
Y3630681D01*
Y2830683D02*
X2594107D01*
Y3630681D01*
X1544107D02*
X2594107D01*
X4131701Y1200384D02*
Y2290384D01*
Y1200384D02*
X4641301D01*
Y2290384D01*
X4131701D02*
X4641301D01*
X392206Y1200384D02*
Y2290379D01*
Y1200384D02*
X901807D01*
Y2290379D01*
X392206D02*
X901807D01*
X1374201Y2830683D02*
Y3630681D01*
X324206D02*
X1374201D01*
X324206Y2830683D02*
Y3630681D01*
Y2830683D02*
X1374201D01*
%TF.MD5,3d3c3bca296d41217c23bd8e380f14aa*%
M02*
