%TF.GenerationSoftware,Altium Limited,Altium Designer,21.0.9 (235)*%
G04 Layer_Color=128*
%FSLAX45Y45*%
%MOMM*%
%TF.SameCoordinates,ED2B7B90-DC9C-465B-8049-FED9E851BE10*%
%TF.FilePolarity,Positive*%
%TF.FileFunction,Drillmap*%
%TF.Part,Single*%
G01*
G75*
%TA.AperFunction,NonConductor*%
%ADD48C,0.12700*%
D48*
X643101Y601980D02*
X733101D01*
X688101Y556980D02*
Y646980D01*
X897101Y601980D02*
X987101D01*
X942101Y556980D02*
Y646980D01*
X1151101Y601980D02*
X1241101D01*
X1196101Y556980D02*
Y646980D01*
X1405101Y601980D02*
X1495101D01*
X1450101Y556980D02*
Y646980D01*
X1659101Y601980D02*
X1749101D01*
X1704101Y556980D02*
Y646980D01*
X1913101Y601980D02*
X2003101D01*
X1958101Y556980D02*
Y646980D01*
X2249106Y3205683D02*
X2389106D01*
X2319106Y3135683D02*
Y3275683D01*
X1749107Y3205683D02*
X1889107D01*
X1819107Y3135683D02*
Y3275683D01*
X7287260Y3810000D02*
X7592060D01*
X7439660Y3657600D02*
Y3962400D01*
X7287260Y228600D02*
X7592060D01*
X7439660Y76200D02*
Y381000D01*
X86360Y228600D02*
X391160D01*
X238760Y76200D02*
Y381000D01*
X86360Y3810000D02*
X391160D01*
X238760Y3657600D02*
Y3962400D01*
X2749000Y601980D02*
X2839000D01*
X2794000Y556980D02*
Y646980D01*
X3003000Y601980D02*
X3093000D01*
X3048000Y556980D02*
Y646980D01*
X3257000Y601980D02*
X3347000D01*
X3302000Y556980D02*
Y646980D01*
X3511000Y601980D02*
X3601000D01*
X3556000Y556980D02*
Y646980D01*
X3765000Y601980D02*
X3855000D01*
X3810000Y556980D02*
Y646980D01*
X4019000Y601980D02*
X4109000D01*
X4064000Y556980D02*
Y646980D01*
X4267200Y1490386D02*
X4394200D01*
X4330700Y1426886D02*
Y1553886D01*
X4267200Y1745381D02*
X4394200D01*
X4330700Y1681881D02*
Y1808881D01*
X4267200Y2000382D02*
X4394200D01*
X4330700Y1936882D02*
Y2063882D01*
X527705Y1490381D02*
X654705D01*
X591205Y1426881D02*
Y1553881D01*
X527705Y1745381D02*
X654705D01*
X591205Y1681881D02*
Y1808881D01*
X527705Y2000382D02*
X654705D01*
X591205Y1936882D02*
Y2063882D01*
X2844561Y2087281D02*
X2925841D01*
X2885201Y2046641D02*
Y2127921D01*
X2590561Y2087281D02*
X2671841D01*
X2631201Y2046641D02*
Y2127921D01*
X2844561Y1325281D02*
X2925841D01*
X2885201Y1284641D02*
Y1365921D01*
X2590561Y1325281D02*
X2671841D01*
X2631201Y1284641D02*
Y1365921D01*
X2082561Y2087281D02*
X2163841D01*
X2123201Y2046641D02*
Y2127921D01*
X2336561Y2087281D02*
X2417841D01*
X2377201Y2046641D02*
Y2127921D01*
X2336561Y1325281D02*
X2417841D01*
X2377201Y1284641D02*
Y1365921D01*
X2082561Y1325281D02*
X2163841D01*
X2123201Y1284641D02*
Y1365921D01*
X3032388Y2935529D02*
X3117388D01*
X3074888Y2893029D02*
Y2978029D01*
X3794388Y2935529D02*
X3879388D01*
X3836888Y2893029D02*
Y2978029D01*
X5566099Y2849281D02*
X5656099D01*
X5611099Y2804281D02*
Y2894280D01*
X5820099Y2849281D02*
X5910099D01*
X5865099Y2804281D02*
Y2894280D01*
X6074099Y2849281D02*
X6164099D01*
X6119099Y2804281D02*
Y2894280D01*
X6328099Y2849281D02*
X6418099D01*
X6373099Y2804281D02*
Y2894280D01*
X4864901Y2059981D02*
X4994901D01*
X4929901Y1994981D02*
Y2124981D01*
X4864901Y829981D02*
X4994901D01*
X4929901Y764981D02*
Y894980D01*
X6064904Y829981D02*
X6194904D01*
X6129904Y764981D02*
Y894980D01*
X6064904Y2059981D02*
X6194904D01*
X6129904Y1994981D02*
Y2124981D01*
X5464900Y2259980D02*
X5594900D01*
X5529900Y2194980D02*
Y2324980D01*
X529201Y3255681D02*
X669201D01*
X599201Y3185681D02*
Y3325680D01*
X1029205Y3255681D02*
X1169205D01*
X1099205Y3185681D02*
Y3325680D01*
X6597101Y1967977D02*
X6717101D01*
X6657101Y1907977D02*
Y2027977D01*
X6597101Y921979D02*
X6717101D01*
X6657101Y861979D02*
Y981979D01*
X6975800Y1967977D02*
X7095800D01*
X7035800Y1907977D02*
Y2027977D01*
X6975800Y921979D02*
X7095800D01*
X7035800Y861979D02*
Y981979D01*
X3670701Y3512683D02*
X3750701D01*
X3710701Y3472683D02*
Y3552683D01*
X3670701Y3258683D02*
X3750701D01*
X3710701Y3218683D02*
Y3298683D01*
X3166704Y1388781D02*
X3246704D01*
X3206704Y1348781D02*
Y1428780D01*
X3666703Y1388781D02*
X3746703D01*
X3706703Y1348781D02*
Y1428780D01*
X3166704Y1998381D02*
X3246704D01*
X3206704Y1958381D02*
Y2038380D01*
X3666703Y1998381D02*
X3746703D01*
X3706703Y1958381D02*
Y2038380D01*
X1037803Y1388781D02*
X1117803D01*
X1077803Y1348781D02*
Y1428780D01*
X1537802Y1388781D02*
X1617802D01*
X1577802Y1348781D02*
Y1428780D01*
X1037803Y1998381D02*
X1117803D01*
X1077803Y1958381D02*
Y2038380D01*
X1537802Y1998381D02*
X1617802D01*
X1577802Y1958381D02*
Y2038380D01*
%TF.MD5,40b1ff746dd1fc27c56a431b2726175d*%
M02*
