%TF.GenerationSoftware,Altium Limited,Altium Designer,21.0.9 (235)*%
G04 Layer_Color=0*
%FSLAX45Y45*%
%MOMM*%
%TF.SameCoordinates,ED2B7B90-DC9C-465B-8049-FED9E851BE10*%
%TF.FilePolarity,Positive*%
%TF.FileFunction,Plated,1,2,PTH,Drill*%
%TF.Part,Single*%
G01*
G75*
%TA.AperFunction,ComponentDrill*%
%ADD60C,0.90000*%
%ADD61C,1.40000*%
%ADD62C,1.27000*%
%ADD63C,0.81280*%
%ADD64C,0.85000*%
%ADD65C,1.30000*%
%ADD66C,1.20000*%
%ADD67C,0.80000*%
D60*
X688101Y601980D02*
D03*
X942101D02*
D03*
X1196101D02*
D03*
X1450101D02*
D03*
X1704101D02*
D03*
X1958101D02*
D03*
X2794000D02*
D03*
X3048000D02*
D03*
X3302000D02*
D03*
X3556000D02*
D03*
X3810000D02*
D03*
X4064000D02*
D03*
X5611099Y2849281D02*
D03*
X5865099D02*
D03*
X6119099D02*
D03*
X6373099D02*
D03*
D61*
X2319106Y3205683D02*
D03*
X1819107D02*
D03*
X599201Y3255681D02*
D03*
X1099205D02*
D03*
D62*
X4330700Y1490386D02*
D03*
Y1745381D02*
D03*
Y2000382D02*
D03*
X591205Y1490381D02*
D03*
Y1745381D02*
D03*
Y2000382D02*
D03*
D63*
X2885201Y2087281D02*
D03*
X2631201D02*
D03*
X2885201Y1325281D02*
D03*
X2631201D02*
D03*
X2123201Y2087281D02*
D03*
X2377201D02*
D03*
Y1325281D02*
D03*
X2123201D02*
D03*
D64*
X3074888Y2935529D02*
D03*
X3836888D02*
D03*
D65*
X4929901Y2059981D02*
D03*
Y829981D02*
D03*
X6129904D02*
D03*
Y2059981D02*
D03*
X5529900Y2259980D02*
D03*
D66*
X6657101Y1967977D02*
D03*
Y921979D02*
D03*
X7035800Y1967977D02*
D03*
Y921979D02*
D03*
D67*
X3710701Y3512683D02*
D03*
Y3258683D02*
D03*
X3206704Y1388781D02*
D03*
X3706703D02*
D03*
X3206704Y1998381D02*
D03*
X3706703D02*
D03*
X1077803Y1388781D02*
D03*
X1577802D02*
D03*
X1077803Y1998381D02*
D03*
X1577802D02*
D03*
%TF.MD5,e49fdb6e4bc5fc150e1dfe029b719e33*%
M02*
