%TF.GenerationSoftware,Altium Limited,Altium Designer,21.0.9 (235)*%
G04 Layer_Color=2752767*
%FSLAX45Y45*%
%MOMM*%
%TF.SameCoordinates,ED2B7B90-DC9C-465B-8049-FED9E851BE10*%
%TF.FilePolarity,Positive*%
%TF.FileFunction,Drawing*%
%TF.Part,Single*%
G01*
G75*
%TA.AperFunction,NonConductor*%
%ADD48C,0.12700*%
%ADD69C,0.16933*%
D48*
X637301Y551180D02*
Y652780D01*
X738901D01*
Y551180D01*
X637301D01*
X891301D02*
Y652780D01*
X992901D01*
Y551180D01*
X891301D01*
X1145301D02*
Y652780D01*
X1246901D01*
Y551180D01*
X1145301D01*
X1399301D02*
Y652780D01*
X1500901D01*
Y551180D01*
X1399301D01*
X1653301D02*
Y652780D01*
X1754901D01*
Y551180D01*
X1653301D01*
X1907301D02*
Y652780D01*
X2008901D01*
Y551180D01*
X1907301D01*
X7439660Y3759200D02*
X7388860Y3860800D01*
X7490460D01*
X7439660Y3759200D01*
Y177800D02*
X7388860Y279400D01*
X7490460D01*
X7439660Y177800D01*
X238760D02*
X187960Y279400D01*
X289560D01*
X238760Y177800D01*
Y3759200D02*
X187960Y3860800D01*
X289560D01*
X238760Y3759200D01*
X2743200Y551180D02*
Y652780D01*
X2844800D01*
Y551180D01*
X2743200D01*
X2997200D02*
Y652780D01*
X3098800D01*
Y551180D01*
X2997200D01*
X3251200D02*
Y652780D01*
X3352800D01*
Y551180D01*
X3251200D01*
X3505200D02*
Y652780D01*
X3606800D01*
Y551180D01*
X3505200D01*
X3759200D02*
Y652780D01*
X3860800D01*
Y551180D01*
X3759200D01*
X4013200D02*
Y652780D01*
X4114800D01*
Y551180D01*
X4013200D01*
X4330700Y1439586D02*
X4356100Y1464986D01*
X4381500D01*
X4356100Y1490386D01*
X4381500Y1515786D01*
X4356100D01*
X4330700Y1541186D01*
X4305300Y1515786D01*
X4279900D01*
X4305300Y1490386D01*
X4279900Y1464986D01*
X4305300D01*
X4330700Y1439586D01*
Y1694581D02*
X4356100Y1719981D01*
X4381500D01*
X4356100Y1745381D01*
X4381500Y1770781D01*
X4356100D01*
X4330700Y1796181D01*
X4305300Y1770781D01*
X4279900D01*
X4305300Y1745381D01*
X4279900Y1719981D01*
X4305300D01*
X4330700Y1694581D01*
Y1949582D02*
X4356100Y1974982D01*
X4381500D01*
X4356100Y2000382D01*
X4381500Y2025782D01*
X4356100D01*
X4330700Y2051182D01*
X4305300Y2025782D01*
X4279900D01*
X4305300Y2000382D01*
X4279900Y1974982D01*
X4305300D01*
X4330700Y1949582D01*
X591205Y1439581D02*
X616605Y1464981D01*
X642005D01*
X616605Y1490381D01*
X642005Y1515781D01*
X616605D01*
X591205Y1541181D01*
X565805Y1515781D01*
X540405D01*
X565805Y1490381D01*
X540405Y1464981D01*
X565805D01*
X591205Y1439581D01*
Y1694581D02*
X616605Y1719981D01*
X642005D01*
X616605Y1745381D01*
X642005Y1770781D01*
X616605D01*
X591205Y1796181D01*
X565805Y1770781D01*
X540405D01*
X565805Y1745381D01*
X540405Y1719981D01*
X565805D01*
X591205Y1694581D01*
Y1949582D02*
X616605Y1974982D01*
X642005D01*
X616605Y2000382D01*
X642005Y2025782D01*
X616605D01*
X591205Y2051182D01*
X565805Y2025782D01*
X540405D01*
X565805Y2000382D01*
X540405Y1974982D01*
X565805D01*
X591205Y1949582D01*
X2834401Y2036481D02*
X2859801Y2087281D01*
X2834401Y2138081D01*
X2885201Y2112681D01*
X2936001Y2138081D01*
X2910601Y2087281D01*
X2936001Y2036481D01*
X2885201Y2061881D01*
X2834401Y2036481D01*
X2580401D02*
X2605801Y2087281D01*
X2580401Y2138081D01*
X2631201Y2112681D01*
X2682001Y2138081D01*
X2656601Y2087281D01*
X2682001Y2036481D01*
X2631201Y2061881D01*
X2580401Y2036481D01*
X2834401Y1274481D02*
X2859801Y1325281D01*
X2834401Y1376081D01*
X2885201Y1350681D01*
X2936001Y1376081D01*
X2910601Y1325281D01*
X2936001Y1274481D01*
X2885201Y1299881D01*
X2834401Y1274481D01*
X2580401D02*
X2605801Y1325281D01*
X2580401Y1376081D01*
X2631201Y1350681D01*
X2682001Y1376081D01*
X2656601Y1325281D01*
X2682001Y1274481D01*
X2631201Y1299881D01*
X2580401Y1274481D01*
X2072401Y2036481D02*
X2097801Y2087281D01*
X2072401Y2138081D01*
X2123201Y2112681D01*
X2174001Y2138081D01*
X2148601Y2087281D01*
X2174001Y2036481D01*
X2123201Y2061881D01*
X2072401Y2036481D01*
X2326401D02*
X2351801Y2087281D01*
X2326401Y2138081D01*
X2377201Y2112681D01*
X2428001Y2138081D01*
X2402601Y2087281D01*
X2428001Y2036481D01*
X2377201Y2061881D01*
X2326401Y2036481D01*
Y1274481D02*
X2351801Y1325281D01*
X2326401Y1376081D01*
X2377201Y1350681D01*
X2428001Y1376081D01*
X2402601Y1325281D01*
X2428001Y1274481D01*
X2377201Y1299881D01*
X2326401Y1274481D01*
X2072401D02*
X2097801Y1325281D01*
X2072401Y1376081D01*
X2123201Y1350681D01*
X2174001Y1376081D01*
X2148601Y1325281D01*
X2174001Y1274481D01*
X2123201Y1299881D01*
X2072401Y1274481D01*
X3049488Y2910129D02*
Y2884729D01*
X3100288D01*
Y2910129D01*
X3125688D01*
Y2960929D01*
X3100288D01*
Y2986329D01*
X3049488D01*
Y2960929D01*
X3024088D01*
Y2910129D01*
X3049488D01*
X3811488D02*
Y2884729D01*
X3862288D01*
Y2910129D01*
X3887688D01*
Y2960929D01*
X3862288D01*
Y2986329D01*
X3811488D01*
Y2960929D01*
X3786088D01*
Y2910129D01*
X3811488D01*
X5560299Y2798481D02*
Y2900081D01*
X5661899D01*
Y2798481D01*
X5560299D01*
X5814299D02*
Y2900081D01*
X5915899D01*
Y2798481D01*
X5814299D01*
X6068299D02*
Y2900081D01*
X6169899D01*
Y2798481D01*
X6068299D01*
X6322299D02*
Y2900081D01*
X6423899D01*
Y2798481D01*
X6322299D01*
X4879101Y2009181D02*
X4904501D01*
X4929901Y2034581D01*
X4955301Y2009181D01*
X4980701D01*
Y2034581D01*
X4955301Y2059981D01*
X4980701Y2085381D01*
Y2110781D01*
X4955301D01*
X4929901Y2085381D01*
X4904501Y2110781D01*
X4879101D01*
Y2085381D01*
X4904501Y2059981D01*
X4879101Y2034581D01*
Y2009181D01*
Y779181D02*
X4904501D01*
X4929901Y804581D01*
X4955301Y779181D01*
X4980701D01*
Y804581D01*
X4955301Y829981D01*
X4980701Y855381D01*
Y880781D01*
X4955301D01*
X4929901Y855381D01*
X4904501Y880781D01*
X4879101D01*
Y855381D01*
X4904501Y829981D01*
X4879101Y804581D01*
Y779181D01*
X6079104D02*
X6104504D01*
X6129904Y804581D01*
X6155304Y779181D01*
X6180704D01*
Y804581D01*
X6155304Y829981D01*
X6180704Y855381D01*
Y880781D01*
X6155304D01*
X6129904Y855381D01*
X6104504Y880781D01*
X6079104D01*
Y855381D01*
X6104504Y829981D01*
X6079104Y804581D01*
Y779181D01*
Y2009181D02*
X6104504D01*
X6129904Y2034581D01*
X6155304Y2009181D01*
X6180704D01*
Y2034581D01*
X6155304Y2059981D01*
X6180704Y2085381D01*
Y2110781D01*
X6155304D01*
X6129904Y2085381D01*
X6104504Y2110781D01*
X6079104D01*
Y2085381D01*
X6104504Y2059981D01*
X6079104Y2034581D01*
Y2009181D01*
X5479100Y2209180D02*
X5504500D01*
X5529900Y2234580D01*
X5555300Y2209180D01*
X5580700D01*
Y2234580D01*
X5555300Y2259980D01*
X5580700Y2285380D01*
Y2310780D01*
X5555300D01*
X5529900Y2285380D01*
X5504500Y2310780D01*
X5479100D01*
Y2285380D01*
X5504500Y2259980D01*
X5479100Y2234580D01*
Y2209180D01*
X6606301Y1967977D02*
X6657101Y2018777D01*
X6707901Y1967977D01*
X6657101Y1917177D01*
X6606301Y1967977D01*
Y921979D02*
X6657101Y972779D01*
X6707901Y921979D01*
X6657101Y871179D01*
X6606301Y921979D01*
X6985000Y1967977D02*
X7035800Y2018777D01*
X7086600Y1967977D01*
X7035800Y1917177D01*
X6985000Y1967977D01*
Y921979D02*
X7035800Y972779D01*
X7086600Y921979D01*
X7035800Y871179D01*
X6985000Y921979D01*
X3659901Y3461883D02*
Y3563483D01*
X3761501D01*
Y3461883D01*
X3659901D01*
X3680221Y3482203D02*
Y3543163D01*
X3741181D01*
Y3482203D01*
X3680221D01*
X3659901Y3207883D02*
Y3309483D01*
X3761501D01*
Y3207883D01*
X3659901D01*
X3680221Y3228203D02*
Y3289163D01*
X3741181D01*
Y3228203D01*
X3680221D01*
X3155904Y1337981D02*
Y1439581D01*
X3257504D01*
Y1337981D01*
X3155904D01*
X3176224Y1358301D02*
Y1419261D01*
X3237184D01*
Y1358301D01*
X3176224D01*
X3655903Y1337981D02*
Y1439581D01*
X3757503D01*
Y1337981D01*
X3655903D01*
X3676223Y1358301D02*
Y1419261D01*
X3737183D01*
Y1358301D01*
X3676223D01*
X3155904Y1947581D02*
Y2049181D01*
X3257504D01*
Y1947581D01*
X3155904D01*
X3176224Y1967901D02*
Y2028861D01*
X3237184D01*
Y1967901D01*
X3176224D01*
X3655903Y1947581D02*
Y2049181D01*
X3757503D01*
Y1947581D01*
X3655903D01*
X3676223Y1967901D02*
Y2028861D01*
X3737183D01*
Y1967901D01*
X3676223D01*
X1027003Y1337981D02*
Y1439581D01*
X1128603D01*
Y1337981D01*
X1027003D01*
X1047323Y1358301D02*
Y1419261D01*
X1108283D01*
Y1358301D01*
X1047323D01*
X1527002Y1337981D02*
Y1439581D01*
X1628602D01*
Y1337981D01*
X1527002D01*
X1547322Y1358301D02*
Y1419261D01*
X1608282D01*
Y1358301D01*
X1547322D01*
X1027003Y1947581D02*
Y2049181D01*
X1128603D01*
Y1947581D01*
X1027003D01*
X1047323Y1967901D02*
Y2028861D01*
X1108283D01*
Y1967901D01*
X1047323D01*
X1527002Y1947581D02*
Y2049181D01*
X1628602D01*
Y1947581D01*
X1527002D01*
X1547322Y1967901D02*
Y2028861D01*
X1608282D01*
Y1967901D01*
X1547322D01*
D69*
X2369906Y3205683D02*
G03*
X2369906Y3205683I-50800J0D01*
G01*
X1869907D02*
G03*
X1869907Y3205683I-50800J0D01*
G01*
X650001Y3255681D02*
G03*
X650001Y3255681I-50800J0D01*
G01*
X1150005D02*
G03*
X1150005Y3255681I-50800J0D01*
G01*
%TF.MD5,c49918691cdcf76ad1172702688f045c*%
M02*
